<svg xmlns="http://www.w3.org/2000/svg" xmlns:svg="http://www.w3.org/2000/svg" xmlns:xlink="http://www.w3.org/1999/xlink" id="svg2" width="150" height="150" version="1.1" viewBox="-5 -10 150 150"><defs id="defs2"><linearGradient id="linearGradient2"><stop style="stop-color:#20998e;stop-opacity:1" id="stop2" offset="0"/><stop style="stop-color:#37ffa6;stop-opacity:1" id="stop3" offset="1"/></linearGradient><linearGradient id="linearGradient3" x1="8.486" x2="131.514" y1="65" y2="65" gradientUnits="userSpaceOnUse" xlink:href="#linearGradient2"/></defs><path id="path1" d="m 86.733661,99.042272 c 5.19032,-18.010098 19.714859,-27.118974 29.031389,-20.772787 9.31737,6.346748 5.65067,20.574947 -11.49877,27.858405 -17.155608,7.28948 -22.509808,22.0117 -22.509808,22.0117 0,0 -0.213747,-11.08766 4.976628,-29.097318 z M 56.808508,66.94653 C 51.958018,54.537862 42.914666,50.799743 36.731659,55.902649 c -6.183007,5.102907 -3.222763,14.238582 8.128114,17.210331 12.819634,3.354232 16.759938,13.000493 16.759938,13.000493 0,0 0.03836,-6.757854 -4.812186,-19.166242 z m -21.123556,40.04285 c 23.134187,0.49327 35.992126,13.21979 35.992126,13.21979 0,0 -3.10757,-25.184098 -30.209983,-37.943819 C 25.063543,74.542872 9.0261974,80.056603 8.5168748,92.574858 7.771482,110.91327 20.645907,106.66611 35.684952,106.98881 Z m 43.326089,21.15021 c 0,0 -2.049778,-35.247076 12.726468,-57.159169 13.740481,-20.377111 21.676371,-23.967624 29.497211,-30.188936 8.40214,-6.686577 17.15,-24.937161 2.08276,-35.0997578 C 108.24546,-4.4752206 91.342399,6.9797232 83.061348,23.784602 74.780296,40.589481 58.271512,75.704632 79.011041,128.13959 Z" style="fill:url(#linearGradient3);fill-opacity:1;stroke-width:1.40309"/></svg>