<?xml version="1.0" encoding="UTF-8" standalone="no"?>
<svg
   width="74.5"
   height="74.5"
   viewBox="0 0 19.711459 19.711459"
   version="1.1"
   id="svg326"
   xmlns="http://www.w3.org/2000/svg"
   xmlns:svg="http://www.w3.org/2000/svg">
  <defs
     id="defs330" />
  <g
     id="layer1"
     transform="translate(-64.829615,-176.17323)">
    <g
       id="g9293"
       transform="matrix(1.0714286,0,0,1.0714286,-215.88386,23.026725)">
      <g
         transform="scale(0.26458333)"
         id="use9291">
        <rect
           style="fill:#acc0c1;fill-opacity:1;stroke-width:1.86554"
           id="rect602"
           width="69.533333"
           height="69.533333"
           x="990.23334"
           y="540.23334" />
        <path
           style="fill:#a2b5b6;stroke:none"
           id="path827"
           d="m 1016,608 q 0,-1.95 -2,-1.95 h -4.05 q -1.95,0 -1.95,1.95 v 2 h 8 v -2 m 0,-65.95 V 540 h -8 v 2.05 q 0,2 1.95,2 h 4.05 q 2,0 2,-2 m 22,50.95 h -2.95 q -2.05,0 -2.05,2.05 v 2.9 q 0,2.05 2.05,2.05 h 2.95 q 2,0 2,-2.05 v -2.9 q 0,-2.05 -2,-2.05 m 10.05,-41 h 2.95 q 2,0 2,-2.05 v -2.9 q 0,-2.05 -2,-2.05 h -2.95 q -2.05,0 -2.05,2.05 v 2.9 q 0,2.05 2.05,2.05 M 1004,583 q 0,2 2,2 h 8 q 2,0 2,-2 v -8 q 0,-2 -2,-2 h -8 q -2,0 -2,2 z" />
        <path
           style="fill:#b7cccd;stroke:none"
           id="path829"
           d="m 1060,592.05 v -12 h -3 q -2,0 -2,2 v 8 q 0,2 2,2 h 3 m -70,-12 v 12 h 5 q 2,0 2,-2 v -8 q 0,-2 -2,-2 h -5 m 30,1.9 V 586 q 0,2 1.95,2 h 4.05 q 2,0 2,-2 v -4.05 q 0,-1.95 -2,-1.95 h -4.05 q -1.95,0 -1.95,1.95 M 1039.05,565 h 2.95 q 2,0 2,-2.05 v -2.9 q 0,-2.05 -2,-2.05 h -2.95 q -2.05,0 -2.05,2.05 v 2.9 q 0,2.05 2.05,2.05 z" />
      </g>
    </g>
  </g>
</svg>
