<?xml version="1.0" encoding="UTF-8" standalone="no"?>
<svg
   xmlns:dc="http://purl.org/dc/elements/1.1/"
   xmlns:cc="http://creativecommons.org/ns#"
   xmlns:rdf="http://www.w3.org/1999/02/22-rdf-syntax-ns#"
   xmlns:svg="http://www.w3.org/2000/svg"
   xmlns="http://www.w3.org/2000/svg"
   id="svg8351"
   version="1.1"
   viewBox="0 0 43.766388 34.528162"
   height="130.50014"
   width="165.41628">
  <defs
     id="defs8345">
    <clipPath
       id="clipPath4971"
       clipPathUnits="userSpaceOnUse">
      <path
         id="path4969"
         d="M 42.835,314.862 H 130.16 V 230.35 H 42.835 Z" />
    </clipPath>
    <clipPath
       id="clipPath5025"
       clipPathUnits="userSpaceOnUse">
      <path
         id="path5023"
         d="m 187.7,311.083 h 81.688 V 230.281 H 187.7 Z" />
    </clipPath>
    <clipPath
       id="clipPath5101"
       clipPathUnits="userSpaceOnUse">
      <path
         id="path5099"
         d="M 333.57,328.077 H 444.832 V 230.202 H 333.57 Z" />
    </clipPath>
  </defs>
  <metadata
     id="metadata8348">
    <rdf:RDF>
      <cc:Work
         rdf:about="">
        <dc:format>image/svg+xml</dc:format>
        <dc:type
           rdf:resource="http://purl.org/dc/dcmitype/StillImage" />
        <dc:title></dc:title>
      </cc:Work>
    </rdf:RDF>
  </metadata>
  <g
     transform="translate(-139.79423,-202.84519)"
     id="layer1">
    <g
       id="g9341">
      <path
         id="path5083"
         style="fill:#fbb040;fill-opacity:1;fill-rule:nonzero;stroke:none;stroke-width:0.35277775"
         d="M 183.56062,216.84098 H 139.7943 v 20.53237 h 43.76632 z" />
      <path
         id="path5085"
         style="fill:#853536;fill-opacity:1;fill-rule:nonzero;stroke:none;stroke-width:0.35277775"
         d="m 182.9355,205.11923 h -42.51713 v 12.09146 h 42.51713 z" />
      <path
         id="path5087"
         style="fill:#853536;fill-opacity:1;fill-rule:nonzero;stroke:none;stroke-width:0.35277775"
         d="m 158.77798,221.4472 h -12.86863 v 11.22397 h 12.86863 z" />
      <path
         id="path5089"
         style="fill:#853536;fill-opacity:1;fill-rule:nonzero;stroke:none;stroke-width:0.35277775"
         d="m 177.66747,221.4472 h -12.86828 v 11.22397 h 12.86828 z" />
      <g
         transform="matrix(0.35277777,0,0,-0.35277777,177.6674,202.84519)"
         id="g5091">
        <path
           id="path5093"
           style="fill:#fbb040;fill-opacity:1;fill-rule:nonzero;stroke:none"
           d="M 0,0 V -29.469 H -36.477 V 0 H -53.544 V -29.469 H -90.022 V 0 h -17.335 V -42.797 H 16.705 V 0 Z" />
      </g>
      <g
         transform="matrix(0.35277777,0,0,-0.35277777,22.118222,318.5835)"
         id="g5095">
        <g
           id="g5097" />
        <g
           id="g5109">
          <g
             style="opacity:0.5"
             id="g5107"
             clip-path="url(#clipPath5101)">
            <g
               id="g5105"
               transform="translate(368.6401,243.5303)">
              <path
                 id="path5103"
                 style="fill:#ffffff;fill-opacity:1;fill-rule:nonzero;stroke:none"
                 d="m 0,0 h -12.506 l -12.011,-13.328 h 12.505 z m 18.742,77.848 6.037,6.699 h -6.037 z m 53.545,6.699 v -4.335 l 3.905,4.335 z M -17.735,25.693 -35.07,6.456 v -19.784 h 1.004 l 16.331,18.121 z m 15.958,29.385 h -15.958 v 15.12 L -35.07,50.961 V 44.874 41.75 18.134 Z m 20.519,0 H 8.748 L -12.217,31.816 H 6.618 L 35.81,64.208 V 84.547 H 35.304 L 18.742,66.17 Z m 18.388,0 H 49.635 L 18.742,20.798 v 11.018 h -2.575 z" />
            </g>
          </g>
        </g>
      </g>
      <g
         transform="matrix(0.35277777,0,0,-0.35277777,156.64921,217.71213)"
         id="g5111">
        <path
           id="path5113"
           style="fill:#f7941e;fill-opacity:1;fill-rule:nonzero;stroke:none"
           d="m 0,0 c 0,-7.871 10.042,-15.533 14.254,-15.533 4.211,0 14.253,7.662 14.253,15.533 z" />
      </g>
      <g
         transform="matrix(0.35277777,0,0,-0.35277777,139.79423,216.40367)"
         id="g5115">
        <path
           id="path5117"
           style="fill:#f7941e;fill-opacity:1;fill-rule:nonzero;stroke:none"
           d="M 0,0 V -1.239 -4.363 -5.357 H 124.062 V -4.363 -1.239 0 Z" />
      </g>
      <g
         transform="matrix(0.35277777,0,0,-0.35277777,162.70207,221.63403)"
         id="g5119">
        <path
           id="path5121"
           style="fill:#853536;fill-opacity:1;fill-rule:nonzero;stroke:none"
           d="m 0,0 -1.515,2.706 c 0.436,0.384 0.713,0.946 0.713,1.575 0,1.16 -0.941,2.101 -2.102,2.101 -1.16,0 -2.103,-0.941 -2.103,-2.101 0,-0.629 0.279,-1.191 0.715,-1.575 L -5.809,0 Z" />
      </g>
      <g
         transform="matrix(0.35277777,0,0,-0.35277777,149.29323,212.86849)"
         id="g5123">
        <path
           id="path5125"
           style="fill:#ffffff;fill-opacity:1;fill-rule:nonzero;stroke:none"
           d="M 0,0 C -7.462,-1.159 -8.402,-2.1 -9.561,-9.562 -10.72,-2.1 -11.66,-1.159 -19.122,0 -11.66,1.158 -10.72,2.098 -9.561,9.561 -8.402,2.098 -7.462,1.158 0,0" />
      </g>
      <g
         transform="matrix(0.35277777,0,0,-0.35277777,152.42414,214.36194)"
         id="g5127">
        <path
           id="path5129"
           style="fill:#ffffff;fill-opacity:1;fill-rule:nonzero;stroke:none"
           d="m 0,0 c -4.051,-0.629 -4.562,-1.139 -5.192,-5.191 -0.629,4.052 -1.14,4.562 -5.192,5.191 4.052,0.63 4.563,1.14 5.192,5.192 C -4.562,1.14 -4.051,0.63 0,0" />
      </g>
      <g
         transform="matrix(0.35277777,0,0,-0.35277777,148.85967,218.02289)"
         id="g5131">
        <path
           id="path5133"
           style="fill:#ffffff;fill-opacity:1;fill-rule:nonzero;stroke:none"
           d="M 0,0 C -3.413,-0.53 -3.842,-0.96 -4.372,-4.372 -4.902,-0.96 -5.333,-0.53 -8.745,0 -5.333,0.53 -4.902,0.96 -4.372,4.373 -3.842,0.96 -3.413,0.53 0,0" />
      </g>
      <g
         transform="matrix(0.35277777,0,0,-0.35277777,153.33949,218.36)"
         id="g5135">
        <path
           id="path5137"
           style="fill:#ffffff;fill-opacity:1;fill-rule:nonzero;stroke:none"
           d="M 0,0 C -2.134,-0.331 -2.403,-0.601 -2.734,-2.734 -3.066,-0.601 -3.335,-0.331 -5.469,0 -3.335,0.332 -3.066,0.601 -2.734,2.734 -2.403,0.601 -2.134,0.332 0,0" />
      </g>
    </g>
  </g>
</svg>
