<?xml version="1.0" encoding="UTF-8" standalone="no"?>
<svg
   xmlns:dc="http://purl.org/dc/elements/1.1/"
   xmlns:cc="http://creativecommons.org/ns#"
   xmlns:rdf="http://www.w3.org/1999/02/22-rdf-syntax-ns#"
   xmlns:svg="http://www.w3.org/2000/svg"
   xmlns="http://www.w3.org/2000/svg"
   id="svg8351"
   version="1.1"
   viewBox="0 0 43.471037 32.938781"
   height="124.49303"
   width="164.29999">
  <defs
     id="defs8345">
    <clipPath
       id="clipPath4971"
       clipPathUnits="userSpaceOnUse">
      <path
         id="path4969"
         d="M 42.835,314.862 H 130.16 V 230.35 H 42.835 Z" />
    </clipPath>
  </defs>
  <metadata
     id="metadata8348">
    <rdf:RDF>
      <cc:Work
         rdf:about="">
        <dc:format>image/svg+xml</dc:format>
        <dc:type
           rdf:resource="http://purl.org/dc/dcmitype/StillImage" />
        <dc:title></dc:title>
      </cc:Work>
    </rdf:RDF>
  </metadata>
  <g
     transform="translate(-99.972812,-207.95918)"
     id="layer1">
    <path
       id="path4937"
       style="fill:#733925;fill-opacity:1;fill-rule:nonzero;stroke:none;stroke-width:0.33458436"
       d="M 143.44385,240.89796 H 99.972812 v -22.86738 h 43.471038 z" />
    <path
       id="path4939"
       style="fill:#5e2a1c;fill-opacity:1;fill-rule:nonzero;stroke:none;stroke-width:0.33458436"
       d="m 142.19467,235.14827 h -40.97232 v -5.618 h 40.97232 z" />
    <path
       id="path4941"
       style="fill:#5e2a1c;fill-opacity:1;fill-rule:nonzero;stroke:none;stroke-width:0.33458436"
       d="m 142.19467,223.64857 h -40.97232 v -5.61768 h 40.97232 z" />
    <path
       id="path4943"
       style="fill:#fbb040;fill-opacity:1;fill-rule:nonzero;stroke:none;stroke-width:0.33458436"
       d="m 139.73933,237.66373 h -36.062 v -16.39862 h 36.062 z m -39.766518,3.23423 H 143.44385 V 218.03058 H 99.972812 Z" />
    <path
       id="path4945"
       style="fill:#733925;fill-opacity:1;fill-rule:nonzero;stroke:none;stroke-width:0.33458436"
       d="m 142.19467,218.0255 h -40.97232 v -10.06092 h 40.97232 z" />
    <path
       id="path4947"
       style="fill:#5e2a1c;fill-opacity:1;fill-rule:nonzero;stroke:none;stroke-width:0.33458436"
       d="m 142.19467,214.64594 h -40.97232 v -3.30181 h 40.97232 z" />
    <path
       id="path4949"
       style="fill:#fbb040;fill-opacity:1;fill-rule:nonzero;stroke:none;stroke-width:0.33458436"
       d="m 139.50191,215.78611 h -35.58645 v -7.82693 h 35.58645 z m -39.529098,2.51991 H 143.44385 V 207.96489 H 99.972812 Z" />
    <path
       id="path4951"
       style="fill:#fbb040;fill-opacity:1;fill-rule:nonzero;stroke:none;stroke-width:0.33458436"
       d="m 117.71718,227.30611 h 8.60778 v -9.44118 h -8.60778 z" />
    <g
       id="g4961"
       transform="matrix(0.35277777,0,0,-0.31732921,123.43751,225.77786)">
      <path
         d="m 0,0 -2.096,3.739 c 0.603,0.532 0.987,1.309 0.987,2.177 0,1.605 -1.301,2.905 -2.906,2.905 -1.605,0 -2.905,-1.3 -2.905,-2.905 0,-0.868 0.382,-1.645 0.985,-2.177 L -8.031,0 Z"
         style="fill:#733925;fill-opacity:1;fill-rule:nonzero;stroke:none"
         id="path4963" />
    </g>
    <g
       transform="matrix(0.35277777,0,0,-0.31732921,84.861576,313.99474)"
       id="g4965">
      <g
         id="g4967" />
      <g
         id="g4979">
        <g
           clip-path="url(#clipPath4971)"
           id="g4977"
           style="opacity:0.5">
          <g
             transform="translate(102.0693,292.1895)"
             id="g4975">
            <path
               d="M 0,0 H 12.505 L 28.091,17.295 H 15.586 Z m -34.039,-51.647 h -12.505 l -9.185,-10.193 h 12.504 z m -14.694,40.744 V 0 h 9.825 l 15.587,17.295 h -24.738 v 5.378 L -59.234,10.272 V 10.222 9.355 6.086 0 -22.556 Z M 6.037,17.295 H -12.797 L -28.384,0 h 18.835 z m -65.271,-72.427 v 20.899 l 10.501,11.652 V -43.48 Z"
               style="fill:#ffffff;fill-opacity:1;fill-rule:nonzero;stroke:none"
               id="path4973" />
          </g>
        </g>
      </g>
    </g>
    <path
       d="m 99.972812,221.27464 h 43.471038 v -1.93127 H 99.972812 Z"
       style="fill:#f7941e;fill-opacity:1;fill-rule:nonzero;stroke:none;stroke-width:0.33458436"
       id="path4981" />
    <g
       id="g4983"
       transform="matrix(0.35277777,0,0,-0.31732921,107.81901,215.1927)">
      <path
         d="M 0,0 C -7.462,-1.158 -8.403,-2.099 -9.561,-9.561 -10.72,-2.099 -11.66,-1.158 -19.123,0 -11.66,1.16 -10.72,2.099 -9.561,9.561 -8.403,2.099 -7.462,1.16 0,0"
         style="fill:#ffffff;fill-opacity:1;fill-rule:nonzero;stroke:none"
         id="path4985" />
    </g>
    <g
       id="g4987"
       transform="matrix(0.35277777,0,0,-0.31732921,110.94992,216.53592)">
      <path
         d="m 0,0 c -4.052,-0.628 -4.562,-1.14 -5.192,-5.192 -0.63,4.052 -1.14,4.564 -5.192,5.192 4.052,0.63 4.562,1.14 5.192,5.191 C -4.562,1.14 -4.052,0.63 0,0"
         style="fill:#ffffff;fill-opacity:1;fill-rule:nonzero;stroke:none"
         id="path4989" />
    </g>
    <g
       id="g4991"
       transform="matrix(0.35277777,0,0,-0.31732921,107.38545,219.82885)">
      <path
         d="M 0,0 C -3.413,-0.53 -3.843,-0.96 -4.373,-4.372 -4.903,-0.96 -5.333,-0.53 -8.746,0 -5.333,0.53 -4.903,0.96 -4.373,4.372 -3.843,0.96 -3.413,0.53 0,0"
         style="fill:#ffffff;fill-opacity:1;fill-rule:nonzero;stroke:none"
         id="path4993" />
    </g>
    <g
       id="g4995"
       transform="matrix(0.35277777,0,0,-0.31732921,111.86491,220.13206)">
      <path
         d="M 0,0 C -2.134,-0.332 -2.402,-0.601 -2.733,-2.734 -3.065,-0.601 -3.334,-0.332 -5.468,0 -3.334,0.332 -3.065,0.6 -2.733,2.734 -2.402,0.6 -2.134,0.332 0,0"
         style="fill:#ffffff;fill-opacity:1;fill-rule:nonzero;stroke:none"
         id="path4997" />
    </g>
  </g>
</svg>
