<?xml version="1.0" encoding="UTF-8" standalone="no"?>
<svg
   xmlns:dc="http://purl.org/dc/elements/1.1/"
   xmlns:cc="http://creativecommons.org/ns#"
   xmlns:rdf="http://www.w3.org/1999/02/22-rdf-syntax-ns#"
   xmlns:svg="http://www.w3.org/2000/svg"
   xmlns="http://www.w3.org/2000/svg"
   id="svg8351"
   version="1.1"
   viewBox="0 0 43.471037 32.938781"
   height="124.49303"
   width="164.29999">
  <defs
     id="defs8345">
    <clipPath
       id="clipPath4971"
       clipPathUnits="userSpaceOnUse">
      <path
         id="path4969"
         d="M 42.835,314.862 H 130.16 V 230.35 H 42.835 Z" />
    </clipPath>
    <clipPath
       id="clipPath5025"
       clipPathUnits="userSpaceOnUse">
      <path
         id="path5023"
         d="m 187.7,311.083 h 81.688 V 230.281 H 187.7 Z" />
    </clipPath>
  </defs>
  <metadata
     id="metadata8348">
    <rdf:RDF>
      <cc:Work
         rdf:about="">
        <dc:format>image/svg+xml</dc:format>
        <dc:type
           rdf:resource="http://purl.org/dc/dcmitype/StillImage" />
        <dc:title></dc:title>
      </cc:Work>
    </rdf:RDF>
  </metadata>
  <g
     transform="translate(-99.972812,-207.95918)"
     id="layer1">
    <g
       transform="translate(2.1752532,0.3505488)"
       id="g9217">
      <path
         id="path4999"
         style="fill:#d1d3d4;fill-opacity:1;fill-rule:nonzero;stroke:none;stroke-width:0.35277775"
         d="M 141.51113,221.74969 H 97.555026 v -14.14075 h 43.956104 z" />
      <path
         id="path5001"
         style="fill:#d1d3d4;fill-opacity:1;fill-rule:nonzero;stroke:none;stroke-width:0.35277775"
         d="M 141.51113,240.54745 H 97.555026 v -22.48923 h 43.956104 z" />
      <path
         id="path5003"
         style="fill:#5e2a1c;fill-opacity:1;fill-rule:nonzero;stroke:none;stroke-width:0.35277775"
         d="m 136.45653,235.72039 h -33.84726 v -12.83511 h 33.84726 z" />
      <path
         id="path5005"
         style="fill:#663429;fill-opacity:1;fill-rule:nonzero;stroke:none;stroke-width:0.35277775"
         d="m 108.21844,222.88528 h -5.60917 v 12.83511 h 5.60917 z" />
      <path
         id="path5007"
         style="fill:#512318;fill-opacity:1;fill-rule:nonzero;stroke:none;stroke-width:0.35277775"
         d="m 119.41278,222.88528 h -5.63739 v 12.83511 h 5.63739 z" />
      <path
         id="path5009"
         style="fill:#663429;fill-opacity:1;fill-rule:nonzero;stroke:none;stroke-width:0.35277775"
         d="m 130.60712,222.88528 h -5.63739 v 12.83511 h 5.63739 z" />
      <path
         id="path5011"
         style="fill:#5e2a1c;fill-opacity:1;fill-rule:nonzero;stroke:none;stroke-width:0.35277775"
         d="M 136.10164,217.4899 H 102.7084 v -9.88131 h 33.39324 z" />
      <path
         id="path5013"
         style="fill:#512318;fill-opacity:1;fill-rule:nonzero;stroke:none;stroke-width:0.35277775"
         d="m 119.50485,207.60894 h -5.63738 v 9.88131 h 5.63738 z" />
      <path
         id="path5015"
         style="fill:#663429;fill-opacity:1;fill-rule:nonzero;stroke:none;stroke-width:0.35277775"
         d="m 108.31051,207.60894 h -5.60211 v 9.88131 h 5.60211 z" />
      <path
         id="path5017"
         style="fill:#663429;fill-opacity:1;fill-rule:nonzero;stroke:none;stroke-width:0.35277775"
         d="m 130.6992,207.60894 h -5.63774 v 9.88131 h 5.63774 z" />
      <g
         transform="matrix(0.35277777,0,0,-0.35277777,31.338639,321.78547)"
         id="g5019">
        <g
           id="g5021" />
        <g
           id="g5049">
          <g
             style="opacity:0.60000598"
             id="g5047"
             clip-path="url(#clipPath5025)">
            <g
               id="g5029"
               transform="translate(202.0269,277.9434)">
              <path
                 id="path5027"
                 style="fill:#ffffff;fill-opacity:1;fill-rule:nonzero;stroke:none"
                 d="M 0,0 V 2.403 H 2.166 L 15.948,17.697 H 0.282 V 33.139 L -14.327,16.929 V 16.086 5.623 -15.898 Z" />
            </g>
            <g
               id="g5033"
               transform="translate(202.0269,266.2651)">
              <path
                 id="path5031"
                 style="fill:#ffffff;fill-opacity:1;fill-rule:nonzero;stroke:none"
                 d="m 0,0 -14.327,-15.899 v -20.085 h 0.733 L 0,-20.9 Z" />
            </g>
            <g
               id="g5037"
               transform="translate(256.8818,295.6406)">
              <path
                 id="path5035"
                 style="fill:#ffffff;fill-opacity:1;fill-rule:nonzero;stroke:none"
                 d="M 0,0 -13.781,-15.294 H -1.277 L 12.506,0 H 8.789 Z" />
            </g>
            <g
               id="g5041"
               transform="translate(222.8188,243.9639)">
              <path
                 id="path5039"
                 style="fill:#ffffff;fill-opacity:1;fill-rule:nonzero;stroke:none"
                 d="m 0,0 h -12.505 l -12.331,-13.683 h 12.504 z" />
            </g>
            <g
               id="g5045"
               transform="translate(233.5513,280.3467)">
              <path
                 id="path5043"
                 style="fill:#ffffff;fill-opacity:1;fill-rule:nonzero;stroke:none"
                 d="M 0,0 13.783,15.294 H 0.389 -5.051 L -18.834,0 Z" />
            </g>
          </g>
        </g>
      </g>
      <g
         transform="matrix(0.35277777,0,0,-0.35277777,126.00729,219.76207)"
         id="g5051">
        <path
           id="path5053"
           style="fill:#d1d3d4;fill-opacity:1;fill-rule:nonzero;stroke:none"
           d="m 0,0 c 0,-10.134 -8.218,-18.351 -18.353,-18.351 -10.135,0 -18.351,8.217 -18.351,18.351 0,10.136 8.216,18.352 18.351,18.352 C -8.218,18.352 0,10.136 0,0" />
      </g>
      <g
         transform="matrix(0.35277777,0,0,-0.35277777,124.81458,219.76207)"
         id="g5055">
        <path
           id="path5057"
           style="fill:#5e2a1c;fill-opacity:1;fill-rule:nonzero;stroke:none"
           d="m 0,0 c 0,-8.268 -6.705,-14.97 -14.972,-14.97 -8.267,0 -14.97,6.702 -14.97,14.97 0,8.269 6.703,14.971 14.97,14.971 C -6.705,14.971 0,8.269 0,0" />
      </g>
      <g
         transform="matrix(0.35277777,0,0,-0.35277777,119.5329,220.03699)"
         id="g5059">
        <path
           id="path5061"
           style="fill:#f7941e;fill-opacity:1;fill-rule:nonzero;stroke:none"
           d="m 0,0 c -5.074,0 -9.201,-4.127 -9.201,-9.2 0,-5.075 4.127,-9.203 9.201,-9.203 5.075,0 9.203,4.128 9.203,9.203 C 9.203,-4.127 5.075,0 0,0 m 0,-22.523 c -7.345,0 -13.321,5.977 -13.321,13.323 0,7.345 5.976,13.32 13.321,13.32 7.347,0 13.323,-5.975 13.323,-13.32 0,-7.346 -5.976,-13.323 -13.323,-13.323" />
      </g>
      <g
         transform="matrix(0.35277777,0,0,-0.35277777,122.37287,219.76207)"
         id="g5063">
        <path
           id="path5065"
           style="fill:#fbb040;fill-opacity:1;fill-rule:nonzero;stroke:none"
           d="m 0,0 c 0,-4.445 -3.605,-8.049 -8.05,-8.049 -4.446,0 -8.049,3.604 -8.049,8.049 0,4.446 3.603,8.05 8.049,8.05 C -3.605,8.05 0,4.446 0,0" />
      </g>
      <g
         transform="matrix(0.35277777,0,0,-0.35277777,107.43012,216.58156)"
         id="g5067">
        <path
           id="path5069"
           style="fill:#ffffff;fill-opacity:1;fill-rule:nonzero;stroke:none"
           d="M 0,0 C -7.462,-1.159 -8.402,-2.1 -9.561,-9.562 -10.72,-2.1 -11.659,-1.159 -19.122,0 -11.659,1.158 -10.72,2.098 -9.561,9.561 -8.402,2.098 -7.462,1.158 0,0" />
      </g>
      <g
         transform="matrix(0.35277777,0,0,-0.35277777,110.5612,218.07501)"
         id="g5071">
        <path
           id="path5073"
           style="fill:#ffffff;fill-opacity:1;fill-rule:nonzero;stroke:none"
           d="m 0,0 c -4.052,-0.629 -4.562,-1.14 -5.192,-5.191 -0.63,4.051 -1.14,4.562 -5.192,5.191 4.052,0.63 4.562,1.14 5.192,5.191 C -4.562,1.14 -4.052,0.63 0,0" />
      </g>
      <g
         transform="matrix(0.35277777,0,0,-0.35277777,106.99655,221.73593)"
         id="g5075">
        <path
           id="path5077"
           style="fill:#ffffff;fill-opacity:1;fill-rule:nonzero;stroke:none"
           d="M 0,0 C -3.413,-0.53 -3.843,-0.96 -4.373,-4.372 -4.903,-0.96 -5.333,-0.53 -8.746,0 -5.333,0.53 -4.903,0.96 -4.373,4.373 -3.843,0.96 -3.413,0.53 0,0" />
      </g>
      <g
         transform="matrix(0.35277777,0,0,-0.35277777,111.4762,222.07304)"
         id="g5079">
        <path
           id="path5081"
           style="fill:#ffffff;fill-opacity:1;fill-rule:nonzero;stroke:none"
           d="M 0,0 C -2.134,-0.331 -2.402,-0.601 -2.733,-2.734 -3.065,-0.601 -3.334,-0.331 -5.468,0 -3.334,0.332 -3.065,0.601 -2.733,2.734 -2.402,0.601 -2.134,0.332 0,0" />
      </g>
    </g>
  </g>
</svg>
