<?xml version="1.0" encoding="UTF-8" standalone="no"?>
<svg
   xmlns:dc="http://purl.org/dc/elements/1.1/"
   xmlns:cc="http://creativecommons.org/ns#"
   xmlns:rdf="http://www.w3.org/1999/02/22-rdf-syntax-ns#"
   xmlns:svg="http://www.w3.org/2000/svg"
   xmlns="http://www.w3.org/2000/svg"
   version="1.1"
   id="Layer_1"
   x="0px"
   y="0px"
   viewBox="0 0 59.544301 35.936871"
   xml:space="preserve"
   width="59.5443"
   height="35.936871"><metadata
   id="metadata1008"><rdf:RDF><cc:Work
       rdf:about=""><dc:format>image/svg+xml</dc:format><dc:type
         rdf:resource="http://purl.org/dc/dcmitype/StillImage" /><dc:title></dc:title></cc:Work></rdf:RDF></metadata><defs
   id="defs1006" />























<g
   transform="matrix(0.11632427,0,0,0.11632427,0,-11.803773)"
   id="g1577"><polygon
     style="fill:#f6bb42"
     points="0,338.207 125.753,374.324 386.13,258.531 350.216,176.572 278.374,158.615 37.038,264.123 "
     id="polygon955" /><polygon
     style="fill:#ffce54"
     points="386.13,258.531 350.216,176.572 107.756,284.345 125.753,374.324 "
     id="polygon957" /><polygon
     style="fill:#e8aa3d"
     points="125.753,374.324 107.756,284.345 37.038,264.123 0.015,338.207 "
     id="polygon959" /><polygon
     style="fill:#f6bb42"
     points="125.753,374.324 251.504,410.41 511.882,294.625 475.969,212.682 404.127,194.717 162.791,300.232 "
     id="polygon961" /><polygon
     style="fill:#ffce54"
     points="511.882,294.625 475.969,212.682 233.508,320.431 251.504,410.41 "
     id="polygon963" /><polygon
     style="fill:#e8aa3d"
     points="251.504,410.41 233.508,320.431 162.791,300.232 125.753,374.324 "
     id="polygon965" /><polygon
     style="fill:#f6bb42"
     points="66.843,272.519 192.596,308.621 432.245,201.379 396.316,119.429 324.488,101.473 103.867,198.435 "
     id="polygon967" /><polygon
     style="fill:#ffce54"
     points="432.245,201.379 396.316,119.429 174.6,218.641 192.596,308.621 "
     id="polygon969" /><polygon
     style="fill:#e8aa3d"
     points="192.596,308.621 174.6,218.641 103.867,198.435 66.843,272.519 "
     id="polygon971" /><g
     id="g973">
</g><g
     id="g975">
</g><g
     id="g977">
</g><g
     id="g979">
</g><g
     id="g981">
</g><g
     id="g983">
</g><g
     id="g985">
</g><g
     id="g987">
</g><g
     id="g989">
</g><g
     id="g991">
</g><g
     id="g993">
</g><g
     id="g995">
</g><g
     id="g997">
</g><g
     id="g999">
</g><g
     id="g1001">
</g></g>
</svg>